<?xml version="1.0" encoding="utf-8"?>
<!-- Generator: Adobe Illustrator 16.0.4, SVG Export Plug-In . SVG Version: 6.00 Build 0)  -->
<!DOCTYPE svg PUBLIC "-//W3C//DTD SVG 1.1//EN" "http://www.w3.org/Graphics/SVG/1.1/DTD/svg11.dtd">
<svg version="1.1" id="Layer_1" xmlns="http://www.w3.org/2000/svg" xmlns:xlink="http://www.w3.org/1999/xlink" x="0px" y="0px"
	 width="929.281px" height="622.08px" viewBox="0 0 929.281 622.08" enable-background="new 0 0 929.281 622.08"
	 xml:space="preserve">
<image overflow="visible" enable-background="new    " width="3872" height="2592" xlink:href="AK10_20090821_051408.JPG"  transform="matrix(0.24 0 0 0.24 -4.882812e-04 0)">
</image>
<g id="gcp">
	<path id="orb" fill="#FFFFFF" stroke="#000000" stroke-miterlimit="10" d="M236.125,74.125"/>
	<path id="beetle" fill="#FFFFFF" stroke="#000000" stroke-miterlimit="10" d="M844.75,133.334"/>
	<path id="slant" fill="#FFFFFF" stroke="#000000" stroke-miterlimit="10" d="M830.583,110.75"/>
	<path id="pier" fill="#FFFFFF" stroke="#000000" stroke-miterlimit="10" d="M660.333,129.333"/>
</g>
<g id="land" display="none">
	<polygon display="inline" fill="none" stroke="#FF0000" stroke-width="0.25" stroke-miterlimit="10" points="50.875,0 55.5,0 
		57.625,1.75 59.375,2.875 61.625,3.875 62.75,4.583 63.333,6.083 64.083,7.25 65.833,7.25 67.333,8.083 68.667,8.083 70.167,9.583 
		72,11.167 73.917,12.833 76.167,14.75 77.583,16.083 79.417,17.083 81.083,17.333 82.583,18.167 84.833,18.75 86.167,19 
		87.417,20.333 88.583,22.333 89.25,22.833 90.583,23.5 91.583,24.833 93.167,25.667 93.583,25.167 95.417,24.917 98.417,24.917 
		100.167,25.417 102.333,25 104.25,25 107.917,25.333 108.917,25.917 110.333,25.917 112.5,25.583 114.917,24.333 117.25,23.667 
		120.5,22.5 124.917,20.75 125,19.417 126.333,19.417 128.25,18.75 129,17.917 131.917,15.167 134.25,13.583 136.417,12.833 
		137.5,11.5 139.167,10.25 141.5,9.25 145.083,8.75 146.75,7.917 149.667,6.833 151,6.167 152.083,6.25 153.083,6.583 154.75,6.5 
		156.583,6.333 157.583,5.833 159.5,5.833 161.75,4.917 163.583,3.917 166.583,2.667 168,1.5 169.833,0 201.75,0 202.875,1.75 
		204.625,2.25 206.5,3.875 208.375,6.5 211.125,8.5 212.75,11 214.5,13.75 216.5,16.375 219,19.125 221.5,22.625 225.75,26.25 
		226.75,28.125 229.5,30.125 233,32.5 235.875,34.25 239.125,34.75 242,36.25 245.375,37 248.875,38 251.25,39.875 253.75,41.375 
		256.625,42.375 257.625,43.5 262.25,43.125 263.625,41.375 267.625,41.375 273.25,42.875 276.75,44.625 281.625,45.5 
		287.125,47.75 290.875,49.25 293.375,52.625 295,55.5 297.375,57.875 299.75,60.25 303.625,62.125 305.75,64.625 309.25,63.625 
		311.75,63.75 314.875,61.875 317,61.875 319.875,63.375 322.625,64.125 326.125,64.125 328.875,64.875 329.875,65.5 333.125,65.25 
		336.5,66.375 339.25,66.375 342.125,67.5 344.375,67.75 351.75,70.375 354.5,69.25 356.25,69.5 360.125,70.125 362.375,71.125 
		367.75,69.125 374.75,68.125 379.125,69.25 383.375,70.375 386.25,71 388.75,72 392.625,73 395,72.375 396.75,71.125 401,71.125 
		403.875,72.625 406.75,72.625 411.5,72.625 415.5,73.125 419.125,73.5 422.375,74.875 424.625,75.625 429.333,74.5 437.833,71.833 
		446,68.667 447.5,68.167 451.333,69.833 454.833,71 457,69.833 460.833,70.5 462.333,73 470.166,72.499 474.333,70.666 479,70.332 
		485.666,69.499 490.5,69.499 495.833,68.999 502,68.832 504.333,66.832 507.333,66.499 512.5,66.999 518.166,67.332 
		523.333,69.499 526.166,70.666 530.333,69.332 532.666,68.666 538.5,70.999 544.166,70.999 551,71.832 555.166,68.999 
		556.833,69.332 558.166,70.332 561.5,70.832 572.833,72.332 580.5,71.332 589.666,69.666 592.498,68.666 596.166,70.166 
		598.832,70.666 600.998,69.666 607.166,66.999 610.498,65.833 621.832,63.499 626.666,60.999 635.166,59.499 643.332,57.166 
		652.998,54.333 659.166,52.333 662.832,52.499 666.166,53.833 669.5,57.666 680.332,62.333 690.166,64.5 698.5,66.833 709,68.833 
		720.166,70.5 726,70 729.332,67.666 734.832,66.5 737.666,66.833 741.332,64.833 747.166,65.833 750,67.5 771.5,61.5 787.332,59.5 
		809.333,60 822.167,61.333 830.167,63.5 842,52.333 852.5,51.167 862.5,50.333 879.667,46 887.5,43.333 891,39.667 896.335,40.167 
		900.001,41.667 914.167,42 929.281,41.875 929.281,143.375 915.25,142.25 905.625,142.25 898,143.375 891.75,143.375 
		882.5,142.625 874.75,138.625 864.875,137.375 858.5,136.375 849.875,138.375 843.375,141.5 839.125,143.375 811.875,138.75 
		769.375,134.875 733.875,131.625 703.625,130.375 675,128.75 650,127.375 637.375,125.625 628.375,123.5 637.875,120 647.5,118.25 
		652,116.625 652.75,114.75 639.125,113.875 615,112 569.625,109.125 549.625,107 530.75,106.125 487,103.375 475.375,100.875 
		468,99.375 460.5,97.25 448.125,96.875 439.125,96.875 437.375,97.125 446.375,102.375 459.75,108.375 469.625,112.5 
		482.625,117.25 495.75,121.625 501.875,126.875 502,129 482,129.75 471.25,130 461.5,130.375 450,131.375 435.125,131.125 
		423.125,131.5 397.5,131.375 385.375,130.875 384,125.75 391.375,117.125 391,112.375 384.375,112 368.375,114.375 351.75,115 
		338,114.375 314.375,113 276.625,107.625 263.625,104.75 249.5,101.5 234.625,100.625 230.875,99.125 225.25,99 213.625,100.875 
		215,105.5 226.625,113 235.125,119.875 230.375,121.625 213.75,120.125 191,119 171.625,116.375 155.375,115.125 133.75,113.125 
		120,112.125 115.25,108 109.875,102.875 100.75,99.875 91.625,97.5 82.625,95.75 64.625,92.5 48.25,92.375 31.625,92.375 
		16.375,92.5 0,94 0,0 	"/>
	<polygon display="inline" fill="none" stroke="#FF0000" stroke-width="0.25" stroke-miterlimit="10" points="929.281,531.666 
		885,547.666 852.333,551.666 807,562.333 767,576.333 729,592.333 680.333,600.333 651.667,617.666 651.667,622.08 929.279,622.08 
			"/>
</g>
<g id="glacier" display="none">
	<polygon display="inline" fill="none" stroke="#FF0000" stroke-width="0.25" stroke-miterlimit="10" points="929.281,159.667 
		871.667,165 786.333,159.667 695.001,155 623.001,155 537.001,155 478.333,150.333 425.667,143.375 377.001,137.667 
		358.334,129.333 283.667,126.333 178.334,129.333 38.334,129.333 0,129.333 0,622.08 454.334,622.08 515.001,594.334 
		619.001,581.667 717,565.667 811,545.667 898.333,526.334 929.281,519.667 	"/>
</g>
<g id="coast">
	<polyline fill="none" stroke="#FF0000" stroke-width="0.25" stroke-miterlimit="10" points="385.75,131.75 394,131.75 
		405.375,131.625 414.125,131.25 422.75,131.375 427.5,131.5 436.125,131.5 444,131.375 452.375,131.375 463.875,131.125 
		470,130.375 476.625,130 487.625,130.375 499.625,129.875 502.375,129.5 	"/>
	<polyline fill="none" stroke="#FF0000" stroke-width="0.25" stroke-miterlimit="10" points="628.625,123.875 634.5,124.5 
		637.625,125.25 641.75,126.5 649.5,127.375 655.25,127.625 657.375,128.625 672.875,129.375 681.625,129.125 689.125,129.375 
		695.875,130 705.25,130.625 720.5,131.375 735.25,132.375 755.875,133.625 770.125,135.125 788.625,137 809.25,138.875 818,140.5 
		827.75,142.375 838.625,143.625 	"/>
	<polyline fill="none" stroke="#FF0000" stroke-width="0.25" stroke-miterlimit="10" points="478,101.75 484.25,103.5 
		489.625,103.375 496.625,104.25 510.75,104.875 520.875,105.875 527.25,106.25 536.5,106.375 549.625,107 553.5,107.75 
		557.25,108.625 558.5,109.625 561.625,109.75 573,110.25 587.25,110.5 606.875,111.75 623.25,112.25 640.25,113.375 652.375,114.5 
			"/>
</g>
<g id="horizon">
	<polyline fill="none" stroke="#FF0000" stroke-width="0.25" stroke-miterlimit="10" points="55.125,0 56.125,1.75 57.75,2 
		60.125,2.875 62.125,4.125 63.25,5.625 64.375,7.375 66.875,7.625 68.125,8 69.875,9.5 73.75,12.625 76.625,15.625 79.625,17 
		83,18.125 85.625,19 87.5,20.625 88.5,22.5 91,23.75 91.875,25.375 93.5,25.375 95.875,24.875 97.875,24.875 100.375,25.5 
		103.125,25.25 107.125,25.25 108.5,25.625 110.5,25.75 114.875,24.125 117.5,23.75 124.875,20.625 125.125,19.625 129.625,18.5 
		131.625,15.75 134.875,13.625 136.375,12.75 138.25,11 140.625,9.75 143,8.5 145.25,8.5 147.375,7.75 151.75,6.25 152.875,6.75 
		157.875,5.75 159.25,5.625 164.75,3.5 167.5,1.25 169.75,0 	"/>
	<polyline fill="none" stroke="#FF0000" stroke-width="0.25" stroke-miterlimit="10" points="202.25,0 203.125,1.75 204.25,2 
		205.125,2 206.875,4.25 208.125,6.25 210.5,7.875 212.375,10 213.25,11.25 214.125,13.25 215.25,15.25 217.25,16.75 218.75,19.375 
		220.875,21.75 224.25,25.375 226,26.625 226.375,27.75 227.375,29 229.75,30.625 232.5,32.5 236.375,34.375 239.375,35 
		242.75,36.5 246.5,37.375 249.625,38.125 251.875,40 254.125,41.25 257.5,43.5 262,43.125 262.75,41.5 264.125,41.5 268.25,41.75 
		270.625,42.375 273.5,43.625 275.75,44.375 278.125,44.875 280.75,45.375 285.875,47 289.625,48.5 292.375,51.25 294.375,54.625 
		295.75,56.25 298.125,58.25 299.125,60.25 300.625,61 302.5,61.5 304.375,62.875 305.75,64.625 308.875,63.875 310,63.625 
		311.625,63.625 314.75,62.5 316.5,61.625 318,62 320.5,63.5 323,64.125 325.5,63.5 327.125,63.875 328.5,64.375 329.875,65.25 
		332.625,65.25 334.5,65.5 336.25,65.875 337.25,66.625 338.125,66.625 339.75,66.75 340.625,67.375 342.875,67.25 344.25,68 
		348.625,69.375 351.25,70.375 352.25,69.625 354.875,69 356.875,69.375 360.25,70.75 361.875,72 365,73.625 370.125,75 374.125,76 
		376.75,77.5 379.375,78 383,77.25 385.125,77.125 386.875,77.625 389.375,80 391.375,80.625 395,82.125 400.375,84.625 402.25,86 
		404.375,88.375 405.75,88.125 407.875,89.5 	"/>
	<path fill="none" stroke="#FF0000" stroke-width="0.25" stroke-miterlimit="10" d="M541.5,71.75l2-0.583l1.5,0.083l1.918,0.5
		l2.916,0.083l2-1.083l1.5-0.083l1.834-1.167l1.666-0.333l1.834,1.25l0.582,0.667l2.918,0.167l4.25,0.5l1.916-0.333
		c1.598,0.05,2.814,0.269,4.361,0.574c1.17,0.23,2.193-0.018,3.363,0.364c1.609,0.524,3.193,0.364,4.865,0.364
		c1.064,0,2.203,0.038,3.193-0.248c0.928-0.268,1.365-0.734,2.404-0.552c0.846,0.148,1.416,0.247,2.314,0.144
		c0.615-0.07,1.193-0.277,1.84-0.405c1.047-0.207,2.193-0.168,3.277-0.255c0.973-0.078,1.898-0.542,2.854-0.607
		c0.621-0.043,0.98,0.307,1.549,0.4c0.922,0.151,1.672-0.616,2.395-1.112l1.082-0.917l1.668-0.083L605.917,67l2.75-1.083h0.832
		l0.668,0.333l2.25-0.417l1.998-0.75l1.5-0.167l1.75-0.667l0.916-0.25l1.25-0.583l3.168-0.25l1-0.833l0.75-0.833H626l1.25-0.333
		L627.916,61l1.916,0.083l0.834,0.083h0.584l1.5-0.5l2.082-1l1.418-0.167l1.332,0.25l1,0.333l2.168-1l1.416-0.75l1.416-0.917
		L644.75,57l0.916-0.167l1.25-0.417l0.666-0.583l1-0.5l1.5-0.083h0.668l1.416,0.167L653,55.75l2.582-1.667l2.5-1l2.668-0.75
		l1.416-0.083l1.5,0.25l1.584,0.667l2.332,1.667l1.75,1.75l2.668,1.5l2.166,1.583l3.834,2l2.416,1L683,63.084h1.75L687.666,64
		l3.584,1.25l1.166,0.333l1.25-0.417h2.834l2.082,0.75L700.416,67l2.416,0.167l3.334,1.083l5.75,2.5l2-0.417h1.668h1.582h1.168
		c0,0,0.908,0.165,0.916,0.167c0.592,0.107,1.133,0.403,1.76,0.246c0.805-0.201,1.488-0.78,2.33-0.986
		c1.123-0.273,2.166-0.375,3.318-0.337c1.479,0.048,3.41,0.493,4.848,0.183c0.707-0.153,1.283-0.604,1.967-0.903
		c0.789-0.346,1.643-0.422,2.475-0.494c0.926-0.08,1.77-0.411,2.689-0.408c1.654,0.005,3.02,0.334,4.57,0.722
		c1.98,0.495,3.74-0.215,5.646-0.638c1.277-0.284,2.521-0.426,3.811-0.8l1.668-0.25L756.248,66l1.5-0.917L759.914,65l1.668-0.667
		l2.166-0.5l0.75-0.75l1.5-0.25l3.084-0.917L772.164,61l3.168-0.917l2.082-0.333l3.334,0.25h2.334h1.166l2.166-0.5l2.418-0.5
		l2.082-0.083h3.418h4.832l3.418-0.083l2.916,0.083l2.416,0.333l2.834,0.583l1.834,0.333l2,0.25l0.666,0.667l2,0.083l2.916,0.167
		h1.668l1.416,0.417l0.75,0.75l1.5,0.333l2.5,0.25l2.166,0.5l3-3l2.334-2.833l2.334-2.417l1.75-1.083l0.832-1.417l0.834-1
		l1.416-0.333h1.25h0.918l1.916-0.083h3.416l1.084-0.5h1.584h0.916l0.75,0.75l0.75,0.25L859.164,50l1.25,0.083L861.332,50
		l0.582,0.667l2.5,0.583l1.168-0.667l1.25-0.417h1.75l1-0.333l1.082-0.333l1.75-0.25l0.75-0.25l2.668-1.417l2-1l0.75-0.25
		l1.332-1.167l1.5-1.083l1.584-0.333l1.084,0.25l1.582,0.167l1-0.583l1.002-0.833l0.916-0.667l0.334-1l1.416-0.667l2.166-0.667
		l1.834-0.167l1.416,0.25l0.584,0.833l0.916,0.583l2.084,0.5l2.166,0.417l1.918,0.25h1.25l1.416,0.333l1.75-0.417l1.334-0.25
		l1,0.417l1.416,0.333l1.25-0.167l1.916-0.5l1.584-0.583h3.834h2.25l1.166-0.417h0.75l0.666,0.5l1.418-0.5h0.582l1.25,0.083
		l1.033,0.333"/>
</g>
</svg>
