<?xml version="1.0" encoding="utf-8"?>
<!-- Generator: Adobe Illustrator 16.0.4, SVG Export Plug-In . SVG Version: 6.00 Build 0)  -->
<!DOCTYPE svg PUBLIC "-//W3C//DTD SVG 1.1//EN" "http://www.w3.org/Graphics/SVG/1.1/DTD/svg11.dtd">
<svg version="1.1" id="Layer_1" xmlns="http://www.w3.org/2000/svg" xmlns:xlink="http://www.w3.org/1999/xlink" x="0px" y="0px"
	 width="929.281px" height="622.08px" viewBox="0 0 929.281 622.08" enable-background="new 0 0 929.281 622.08"
	 xml:space="preserve">
<g id="Layer_1_2_">
	<g id="Layer_1_1_">

			<image overflow="visible" enable-background="new    " width="3872" height="2592" xlink:href="AK03b_20080621_211611.JPG"  transform="matrix(0.24 0 0 0.24 -0.0015 0)">
		</image>
	</g>
</g>
<g id="gcp">
	<path id="P5080" fill="#FF0000" stroke="#FF0000" stroke-miterlimit="10" d="M825.664,24.113"/>
	<path id="CCFG003" fill="#FF0000" stroke="#FF0000" stroke-miterlimit="10" d="M542.833,563.084"/>
	<path id="CCFG001" fill="#FF0000" stroke="#FF0000" stroke-miterlimit="10" d="M153.07,594.589"/>
	<path id="CCFG002" fill="#FF0000" stroke="#FF0000" stroke-miterlimit="10" d="M43.417,570.917"/>
	<path id="theodolite" fill="#FF0000" stroke="#FF0000" stroke-miterlimit="10" d="M65.083,548.75"/>
	<path id="JNCSLDR" fill="#FF0000" stroke="#FF0000" stroke-miterlimit="10" d="M393.25,145.583"/>
	<path id="JUNCTURE_x5F_old" fill="#FF0000" stroke="#FF0000" stroke-miterlimit="10" d="M620.75,68.5"/>
	<path id="NJC" fill="#FF0000" stroke="#FF0000" stroke-miterlimit="10" d="M518.833,106.75"/>
	<path id="xcrack" fill="#FF0000" stroke="#FF0000" stroke-miterlimit="10" d="M318.333,118.75"/>
	<path id="TRIANGLEPK" fill="#FF0000" stroke="#FF0000" stroke-miterlimit="10" d="M207.875,46.125"/>
	<path id="P7930" fill="#FF0000" stroke="#FF0000" stroke-miterlimit="10" d="M107.25,54.375"/>
	<path id="tooth" fill="#FF0000" stroke="#FF0000" stroke-miterlimit="10" d="M52.375,54.375"/>
	<path id="bullseye" fill="#FF0000" stroke="#FF0000" stroke-miterlimit="10" d="M230.481,110.072"/>
	<path id="pinch" fill="#FF0000" stroke="#FF0000" stroke-miterlimit="10" d="M515.111,115.996"/>
	<path id="jawlip" fill="#FF0000" stroke="#FF0000" stroke-miterlimit="10" d="M626.664,132.26"/>
	<path id="alcove" fill="#FF0000" stroke="#FF0000" stroke-miterlimit="10" d="M689.511,129.874"/>
	<path id="butt" fill="#FF0000" stroke="#FF0000" stroke-miterlimit="10" d="M812.642,143.662"/>
	<path id="portaledge" fill="#FF0000" stroke="#FF0000" stroke-miterlimit="10" d="M910.232,128.458"/>
</g>
<polygon id="glacier" fill="none" stroke="#000000" stroke-miterlimit="10" points="929.281,157 866.333,157 743.667,157
	613.667,163.667 551,168.333 457.667,174.333 417.667,180.333 435,171.667 447,161.667 429.667,160.333 401,157 378.333,161
	378.333,157 384.333,145.583 396.333,143.662 415,132.26 398.333,132.26 360.333,138.333 329,139.667 291.667,143.662
	270.333,145.583 259.667,153 250.333,159.667 230.481,161.667 187.667,156.297 153.07,153 130.333,149 101.667,143.662
	96.333,135.667 91.667,128.458 56.333,136.333 25,135 0,137.667 0,205.667 0,384.333 0,510.333 65.083,510.333 115.667,510.333
	165,514.333 215,529 285.667,548.75 335,567 367,573.667 409,577 431.667,591 477.667,581.667 515.111,566.333 539.667,557.667
	583.667,563.084 639.667,570.917 693,570.917 744.333,577 774.333,570.917 803.667,570.917 844.333,548.75 877.667,533
	929.281,509.667 "/>
<polyline id="terminus" fill="none" stroke="#000000" stroke-miterlimit="10" points="0,207.54 46.474,207.54 90.474,210.207
	167.807,210.207 246.474,210.207 315.14,217.54 360.474,226.874 378.474,230.207 385.14,237.54 385.14,260.874 366.474,279.54
	318.333,306.874 283.807,326.207 230.481,352.207 164.474,371.54 107.25,385.54 59.14,392.207 0,396.207 "/>
<path id="horizon" fill="none" stroke="#FF0000" stroke-width="0.25" stroke-miterlimit="10" d="M-0.001,61.181l1.759-1.147
	l2.362-0.337l2.565,0.405l2.295,0.337l1.89-0.742l1.08,0.337l0.877,0.203l1.35-0.203l1.08-0.607l1.417,0.203l1.688,0.877
	l1.552,0.135l0.743-0.607l2.092-0.203l2.025,0.068l1.823,0.472l1.89,1.013l1.823,1.485l0.607,0.607h1.08l1.013,0.607l1.755-0.27
	l2.295-0.067l3.038,0.135l2.362-0.135l0.54-0.81l0.743-0.877l-0.135-1.012l1.35-0.607l2.228-0.27l0.27-1.62l0.945-0.675h1.485
	l0.607-1.89l0.067-1.35l1.013-0.81l2.025,0.473l2.16,1.417l1.958,1.958l1.417,2.092l1.485,1.755l1.755,0.743l3.037,1.08
	l-0.067-1.215v-0.742l1.147,0.067l1.553-0.743l1.282-1.012l1.417-0.27l3.172-0.067l1.89-0.135l1.89-0.405l1.89,0.472l1.89,1.417
	l1.282,0.607l2.632,0.473l2.093,1.013l1.417,1.35l1.215-0.742l1.688,0.135l3.24-1.822l3.51-2.498l2.227-1.147l1.485-0.405
	l1.282-1.013l0.473-1.62l2.295,0.27l0.472-1.282l4.995,1.146l3.105,1.215l2.362,1.823l3.982-0.068L122.106,57l1.688,0.068
	l2.16,0.202l1.35,0.877l2.768,0.27l1.282,0.743l3.442,0.675l6.345,0.743l5.602,0.473l5.13-0.81l6.075-0.81l4.927-0.135l3.24-1.012
	l3.78-3.24l2.228-1.755l2.43-0.405l0.81-0.135l0.472-0.945l1.08-0.405l2.025,0.54l1.147,0.202l2.025,0.405l1.013,0.945l1.012-0.067
	l0.877,0.877l1.553,0.405l2.565-0.067l0.742-0.877l1.485-1.282l2.362-2.025l0.607-1.417l0.337-1.552l0.945-1.62l1.485-0.742h1.755
	l1.485,0.472l1.35,1.013l1.822,1.215l1.013,0.405l1.755-1.283l1.08-1.012l0.675-0.473l1.08,0.877l1.148,1.147l2.092,2.362
	l2.092,2.363l2.768,1.755l3.51,2.16l3.578,0.81l1.215,0.203l1.553-1.755l1.89-0.675l2.43,0.068l2.902,0.337l2.902,0.877l2.565,1.012
	l0.877,0.135l1.215-1.485l2.295-1.08l2.565,0.473l2.295,0.472l2.16,1.013l3.038,0.607l3.24-1.62l3.848-1.485l2.7-0.337l2.092-0.54
	c0,0,2.295,0,2.498,0c0.203,0,2.835,0.54,2.835,0.54l2.498,0.472l3.037,0.405l1.823-0.81l1.688-1.822l1.89-1.958l1.215-1.08
	l0.675-1.282l0.81-1.013l1.958-0.877l1.147-0.27l1.215-1.283l1.08-1.755L292,40.595l1.958-1.013l1.755-0.405l2.632-0.203l2.025-0.54
	l1.823-1.215l2.228-1.08l3.104-1.822l2.564-0.81l2.7-0.54l3.172-0.742l2.498-1.283l3.375-0.473l2.902,0.405l2.768,0.54l2.632,1.417
	l2.769,1.485l2.768,1.215l3.982,1.823c0,0,2.16,0.54,2.564,0.54c0.405,0,1.823-0.742,1.823-0.742l1.958-0.54h1.552h1.891
	l2.564,0.203l2.362,0.607l2.024,0.405l1.08-0.945l1.08-1.485l1.147-1.755h2.362l2.497-0.742l1.216-1.215l1.619-1.147
	c0,0,2.971-0.607,3.173-0.675c0.201-0.068,2.768-1.08,2.768-1.08l2.97-1.147l1.755-0.135l1.62-0.81l2.16-1.755l0.811-1.147
	l1.619-0.473l3.375-0.135l3.442-0.27l2.16-0.135l1.215-1.012l1.215-0.54l2.632-0.068l4.051,0.338l3.172,0.337l2.16,1.35l2.361,1.552
	L411,25.678l1.282-0.54l1.89,0.203l1.755,0.067l1.147,0.675l1.822,1.755l1.553,0.135l2.295-0.877l1.755-0.607l2.025,0.473
	l1.215,0.27l1.146,0.54l2.295-0.068l2.565,0.27l1.35,0.945l1.417,0.405l1.891,0.203l1.417,0.067l1.62,0.607l1.484,0.81l1.417,0.81
	l1.351,1.215l2.228-0.405l1.891-0.81l1.215-1.553l1.281-0.675l1.417,1.35l1.823,1.215l2.362-2.024l2.362-3.172l2.228-2.97
	l2.767-3.172l2.296-2.16l3.441-2.025l2.565-2.362l2.228-1.417l1.891-0.27l1.755,0.945l3.239,0.743h1.957l1.147-1.282l1.282,0.472
	l2.902,1.485l2.564,0.608l1.822-0.135l0.944-1.417l1.688-0.135h1.89l1.891,0.405l1.958,0.743l2.023,0.27l1.216-0.877l1.755-0.068
	l2.093,0.27l1.958,1.147l2.563,1.62l3.713,0.945L521.626,19l3.51,0.742l2.7,0.81l2.497,0.337h1.958l2.699,0.337l2.16,0.675
	l0.878-0.473l2.295,0.405l2.023,0.405l1.282,0.405l1.352-0.54l2.159-0.337l1.553,0.473l1.553,1.215l1.484,0.203h2.093
	c0,0,2.092,0,2.295-0.067c0.203-0.067,1.215-1.08,1.215-1.08l2.362-0.607l1.755,0.202l2.025,0.675l1.146,0.945l0.81,0.945
	c0,0,1.892,0.878,2.094,0.945c0.202,0.067,2.159,0.405,2.159,0.405l2.024,0.675l1.891,0.675l1.756,0.81l1.755,1.215l0.877,0.743
	c0,0,1.822-0.473,2.024-0.405s2.16,0.473,2.16,0.473l2.362,1.08l1.484,0.945l1.484,0.945l1.485,0.877l1.755,0.54l1.822-0.945
	l2.497,0.067l2.295,0.067l2.431,0.608l2.699,0.945l2.16-1.283l2.564-1.552l1.282-1.08l1.822-0.607l1.688-0.607l2.295-0.81
	l2.295-0.135l1.282,0.337l1.215,0.202l0.945-1.35l2.564-0.945l2.362-0.945h2.295l1.957,0.54l1.215,0.473l3.849-0.068l3.375,0.135
	l2.768-0.607l1.553-0.135l2.228,1.013l3.915,1.08l2.97,0.675l3.375,0.81l3.713,0.203l1.89,0.135l3.037,0.203l2.498,0.405
	c0,0,1.08,0.81,1.282,0.81s1.891-0.135,1.891-0.135l1.554-0.472h1.281l2.362-0.27h1.553l1.62-0.067l2.159,0.675l0.812-0.675
	l1.755-0.473l1.553-0.54l1.483-0.945l1.62-0.473l1.216,0.135l1.619,0.472l1.485-0.067l1.619-0.81l1.958-0.742l1.282-0.675
	l1.351-0.405l1.552,0.203l1.892,0.675l2.361,0.742l2.159,1.35l2.295,1.688l1.014,1.215l0.878,1.553l1.08,1.89l2.698,2.093
	l1.688,1.89l1.418,1.013l2.7,1.282l3.914,1.688l3.239,0.607l3.646,1.485l1.216,1.147l1.553,1.08l0.742,1.013l2.295,0.81l2.229,0.607
	l1.418,0.81l1.822,1.35l2.159,1.282l1.553,1.215l0.878,0.877l1.957-1.688l1.756-0.27l2.361-0.405l2.229-0.675l1.755-1.08l1.89-0.877
	l2.564-0.877l2.363-1.08l1.89-0.945l2.295-0.877l1.147-0.54l1.688-1.417l2.362-1.147l1.755-0.81l2.16-0.81l1.215-0.27l1.215,0.27
	l1.013,1.147l1.216,1.35l2.699,2.16l1.756,1.553l2.023,1.012l1.688,0.877l0.878-0.27l0.54,0.54l1.146,0.675l2.902,0.135l1.146,0.877
	l0.54,0.54l1.553-1.552l2.431-1.62l1.282-1.958l1.281-2.092l1.418-1.283l1.822-2.7l2.97-3.308l1.216-1.012l1.282-3.308l1.553-1.417
	l1.958-1.417l3.172-2.497l2.361-1.688l2.432-1.553l1.957-1.755l1.013-0.27l1.282,0.607l0.675,1.35l0.743,0.607l5.398,0.203
	l2.769,0.405l2.901-0.067l2.7,1.013l1.147-0.203l1.146,0.607l3.577,0.607l4.252-0.067l4.928-1.147l3.714-1.283l2.496-0.945
	l1.147,0.473l1.89,0.675l1.959,0.27l0.607,0.877h1.35l1.282-0.135l1.08,1.147l0.811,1.688l1.891,0.945l1.08,0.607l1.89,0.135
	l2.16-0.27l1.484-0.607l1.484-0.54l1.755-0.877l1.014-0.337l0.675,0.81l1.281,0.473l1.756-0.068l1.351-0.337l0.607,1.215l1.62,1.08
	l1.35,1.35l1.553,2.025l0.944,1.147l0.944,0.675l2.498,1.012l1.756,1.417l2.093,1.013l2.361,1.755c0,0,1.419,0.607,1.688,0.742
	c0.27,0.135,1.822,0.675,1.822,0.675l1.821,1.147l1.822,2.43l2.7,2.565l2.093,2.7l1.079,1.822l1.688,1.552l1.418,0.878l2.093-0.068
	l3.104-0.877l1.498-0.392"/>
</svg>
